<svg width="11" height="12" viewBox="0 0 11 12" fill="none" xmlns="http://www.w3.org/2000/svg">
<path d="M6.02787 10.889V1.55562C6.02787 1.23346 5.7667 0.97229 5.44454 0.97229C5.12237 0.97229 4.8612 1.23346 4.8612 1.55562V10.889C4.8612 11.2111 5.12237 11.4723 5.44454 11.4723C5.7667 11.4723 6.02787 11.2111 6.02787 10.889Z" fill="#50E3C2"/>
<path d="M5.43935 2.44147L9.08914 6.60673C9.30146 6.84903 9.67 6.87334 9.91231 6.66102C10.1546 6.4487 10.1789 6.08016 9.9666 5.83785L5.87745 1.17119C5.64486 0.905742 5.23167 0.906034 4.99945 1.17181L0.92193 5.83847C0.709953 6.08108 0.734782 6.44959 0.977387 6.66156C1.21999 6.87354 1.5885 6.84871 1.80048 6.60611L5.43935 2.44147Z" fill="#50E3C2"/>
</svg>
