<svg width="20" height="21" viewBox="0 0 20 21" fill="none" xmlns="http://www.w3.org/2000/svg">
<path d="M13.6667 3.83332V4.33332H14.1667H15.8333C16.3638 4.33332 16.8725 4.54404 17.2475 4.91911C17.6226 5.29418 17.8333 5.80289 17.8333 6.33332V16.3333C17.8333 16.8638 17.6226 17.3725 17.2475 17.7475C16.8725 18.1226 16.3638 18.3333 15.8333 18.3333H4.16666C3.63622 18.3333 3.12752 18.1226 2.75244 17.7475C2.37737 17.3725 2.16666 16.8638 2.16666 16.3333V6.33332C2.16666 5.80289 2.37737 5.29418 2.75244 4.91911C3.12752 4.54404 3.63622 4.33332 4.16666 4.33332H5.83332H6.33332V3.83332V2.99999C6.33332 2.91158 6.36844 2.8268 6.43095 2.76429C6.49347 2.70178 6.57825 2.66666 6.66666 2.66666C6.75506 2.66666 6.83985 2.70178 6.90236 2.76429C6.96487 2.8268 6.99999 2.91158 6.99999 2.99999V3.83332V4.33332H7.49999H12.5H13V3.83332V2.99999C13 2.91158 13.0351 2.8268 13.0976 2.76429C13.1601 2.70178 13.2449 2.66666 13.3333 2.66666C13.4217 2.66666 13.5065 2.70178 13.569 2.76429C13.6315 2.8268 13.6667 2.91158 13.6667 2.99999V3.83332ZM3.33332 9.99999H2.83332V10.5V16.3333C2.83332 16.6869 2.9738 17.0261 3.22385 17.2761C3.4739 17.5262 3.81303 17.6667 4.16666 17.6667H15.8333C16.1869 17.6667 16.5261 17.5262 16.7761 17.2761C17.0262 17.0261 17.1667 16.6869 17.1667 16.3333V10.5V9.99999H16.6667H3.33332ZM16.6667 9.33332H17.1667V8.83332V6.33332C17.1667 5.9797 17.0262 5.64056 16.7761 5.39052C16.5261 5.14047 16.1869 4.99999 15.8333 4.99999H14.1667H13.6667V5.49999V6.33332C13.6667 6.42173 13.6315 6.50651 13.569 6.56903C13.5065 6.63154 13.4217 6.66666 13.3333 6.66666C13.2449 6.66666 13.1601 6.63154 13.0976 6.56903C13.0351 6.50651 13 6.42173 13 6.33332V5.49999V4.99999H12.5H7.49999H6.99999V5.49999V6.33332C6.99999 6.42173 6.96487 6.50651 6.90236 6.56903C6.83985 6.63154 6.75506 6.66666 6.66666 6.66666C6.57825 6.66666 6.49347 6.63154 6.43095 6.56903C6.36844 6.50651 6.33332 6.42173 6.33332 6.33332V5.49999V4.99999H5.83332H4.16666C3.81303 4.99999 3.4739 5.14047 3.22385 5.39051C2.9738 5.64056 2.83332 5.9797 2.83332 6.33332V8.83332V9.33332H3.33332H16.6667Z" fill="black" stroke="#80878D"/>
</svg>
