<svg width="16" height="14" viewBox="0 0 16 14" fill="none" xmlns="http://www.w3.org/2000/svg">
<path fill-rule="evenodd" clip-rule="evenodd" d="M4.84614 0.691455C7.2429 0.510807 9.65019 0.522664 12.045 0.726895L13.4884 0.84998C14.5786 0.942958 15.4634 1.77034 15.6292 2.8519L15.7202 3.44597C16.0292 5.46188 16.0004 7.51519 15.6348 9.52159C15.4544 10.5116 14.5921 11.2311 13.5857 11.2311H5.60669C5.42312 11.2311 5.2424 11.2765 5.08071 11.3635L1.60445 13.2316C1.39785 13.3427 1.14809 13.337 0.94677 13.2166C0.745455 13.0963 0.622192 12.879 0.622192 12.6444V5.07349C0.622192 2.7814 2.38878 0.876664 4.67438 0.704398L4.84614 0.691455ZM11.9318 2.0554C9.60798 1.85723 7.27198 1.84573 4.94636 2.02101L4.77459 2.03396C3.18453 2.1538 1.95553 3.4789 1.95553 5.07349V11.5293L4.44953 10.189C4.80528 9.99776 5.20284 9.89776 5.6067 9.89776H13.5858C13.9478 9.89776 14.2581 9.63883 14.3231 9.28265C14.6621 7.42185 14.6889 5.51757 14.4023 3.64798L14.3113 3.05391C14.2387 2.58095 13.8519 2.21914 13.3751 2.17848L11.9318 2.0554ZM3.7333 6.19999C3.7333 5.5863 4.23076 5.08886 4.84441 5.08886C5.45806 5.08886 5.95552 5.5863 5.95552 6.19999C5.95552 6.81359 5.45806 7.3111 4.84441 7.3111C4.23076 7.3111 3.7333 6.81359 3.7333 6.19999ZM7.28885 6.19999C7.28885 5.5863 7.78627 5.08886 8.39996 5.08886C9.01365 5.08886 9.51107 5.5863 9.51107 6.19999C9.51107 6.81359 9.01365 7.3111 8.39996 7.3111C7.78627 7.3111 7.28885 6.81359 7.28885 6.19999ZM10.8444 6.19999C10.8444 5.5863 11.3418 5.08886 11.9555 5.08886C12.5692 5.08886 13.0666 5.5863 13.0666 6.19999C13.0666 6.81359 12.5692 7.3111 11.9555 7.3111C11.3418 7.3111 10.8444 6.81359 10.8444 6.19999Z" fill="#80878D"/>
</svg>
