<svg width="17" height="16" viewBox="0 0 17 16" fill="none" xmlns="http://www.w3.org/2000/svg">
<path fill-rule="evenodd" clip-rule="evenodd" d="M14 15.2H3.59998C1.94312 15.2 0.599976 13.8568 0.599976 12.2V1.75451C0.599976 0.615794 1.8871 -0.0465824 2.81371 0.61529L2.95374 0.715314C3.57814 1.16131 4.42391 1.15981 5.05123 0.711722C6.09433 -0.0333424 7.50566 -0.0333424 8.5487 0.711722C9.17606 1.15981 10.0218 1.16131 10.6462 0.715314L10.7862 0.61529C11.7129 -0.0465824 13 0.615794 13 1.75451V7.99999H15.6C15.9313 7.99999 16.2 8.26855 16.2 8.59999V13C16.2 14.215 15.215 15.2 14 15.2ZM7.85126 1.6882C7.22542 1.24116 6.37458 1.24116 5.74872 1.6882C4.7071 2.43222 3.30082 2.43791 2.25626 1.69179L2.11622 1.59177C1.98385 1.49722 1.79998 1.59184 1.79998 1.75451V12.2C1.79998 13.1941 2.60586 14 3.59998 14H12.0399C11.8865 13.6999 11.8 13.3601 11.8 13V1.75451C11.8 1.59184 11.6161 1.49722 11.4837 1.59177L11.3437 1.69179C10.2991 2.43791 8.89286 2.43222 7.85126 1.6882ZM13 9.19999V13C13 13.5522 13.4477 14 14 14C14.5523 14 15 13.5522 15 13V9.19999H13ZM8.99998 4.99996C9.33134 4.99996 9.59998 5.26859 9.59998 5.59996C9.59998 5.93136 9.33134 6.2 8.99998 6.2H4.19998C3.86861 6.2 3.59998 5.93136 3.59998 5.59996C3.59998 5.26859 3.86861 4.99996 4.19998 4.99996H8.99998ZM8.19998 7.39999C8.53133 7.39999 8.79997 7.66855 8.79997 7.99999C8.79997 8.33135 8.53133 8.59999 8.19998 8.59999H4.19998C3.86861 8.59999 3.59998 8.33135 3.59998 7.99999C3.59998 7.66855 3.86861 7.39999 4.19998 7.39999H8.19998ZM8.99998 9.79999C9.33134 9.79999 9.59998 10.0686 9.59998 10.4C9.59998 10.7314 9.33134 11 8.99998 11H4.19998C3.86861 11 3.59998 10.7314 3.59998 10.4C3.59998 10.0686 3.86861 9.79999 4.19998 9.79999H8.99998Z" fill="#80878D"/>
</svg>
