<svg width="16" height="15" viewBox="0 0 16 15" fill="none" xmlns="http://www.w3.org/2000/svg">
<path fill-rule="evenodd" clip-rule="evenodd" d="M2.45667 1.37625C3.47364 1.26258 4.52637 1.26258 5.54334 1.37625C5.79045 1.40386 5.98533 1.59954 6.01313 1.83718C6.13457 2.87554 6.13457 3.9245 6.01313 4.96286C5.98533 5.2005 5.79045 5.39618 5.54334 5.42379C4.52637 5.53746 3.47364 5.53746 2.45667 5.42379C2.20955 5.39618 2.01467 5.2005 1.98688 4.96286C1.86543 3.9245 1.86543 2.87554 1.98688 1.83718C2.01467 1.59954 2.20955 1.40386 2.45667 1.37625ZM5.67663 0.183673C4.57107 0.0601134 3.42894 0.0601134 2.32338 0.183673C1.53071 0.272265 0.888755 0.896257 0.795011 1.69779C0.662731 2.82875 0.662731 3.97129 0.795011 5.10226C0.888755 5.90383 1.53071 6.52775 2.32338 6.61639C3.42894 6.73991 4.57107 6.73991 5.67663 6.61639C6.46929 6.52775 7.11129 5.90383 7.20497 5.10226C7.33729 3.97129 7.33729 2.82875 7.20497 1.69779C7.11129 0.896257 6.46929 0.272265 5.67663 0.183673ZM2.45667 9.37623C3.47364 9.26255 4.52637 9.26255 5.54334 9.37623C5.79045 9.40391 5.98533 9.59951 6.01313 9.83719C6.13457 10.8755 6.13457 11.9245 6.01313 12.9629C5.98533 13.2005 5.79045 13.3961 5.54334 13.4238C4.52637 13.5374 3.47364 13.5374 2.45667 13.4238C2.20955 13.3961 2.01467 13.2005 1.98688 12.9629C1.86543 11.9245 1.86543 10.8755 1.98688 9.83719C2.01467 9.59951 2.20955 9.40391 2.45667 9.37623ZM5.67663 8.18367C4.57107 8.06015 3.42894 8.06015 2.32338 8.18367C1.53071 8.27231 0.888755 8.89623 0.795011 9.69775C0.662731 10.8288 0.662731 11.9713 0.795011 13.1022C0.888755 13.9038 1.53071 14.5278 2.32338 14.6164C3.42894 14.7399 4.57107 14.7399 5.67663 14.6164C6.46929 14.5278 7.11129 13.9038 7.20497 13.1022C7.33729 11.9713 7.33729 10.8288 7.20497 9.69775C7.11129 8.89623 6.46929 8.27231 5.67663 8.18367ZM13.5434 1.37625C12.5263 1.26258 11.4736 1.26258 10.4567 1.37625C10.2095 1.40386 10.0147 1.59954 9.98689 1.83718C9.86545 2.87554 9.86545 3.9245 9.98689 4.96286C10.0147 5.2005 10.2095 5.39618 10.4567 5.42379C11.4736 5.53746 12.5263 5.53746 13.5434 5.42379C13.7905 5.39618 13.9854 5.2005 14.0131 4.96286C14.1346 3.9245 14.1346 2.87554 14.0131 1.83718C13.9854 1.59954 13.7905 1.40386 13.5434 1.37625ZM10.3234 0.183673C11.429 0.0601134 12.571 0.0601134 13.6766 0.183673C14.4693 0.272265 15.1113 0.896257 15.205 1.69779C15.3373 2.82875 15.3373 3.97129 15.205 5.10226C15.1113 5.90383 14.4693 6.52775 13.6766 6.61639C12.571 6.73991 11.429 6.73991 10.3234 6.61639C9.53073 6.52775 8.88873 5.90383 8.79497 5.10226C8.66273 3.97129 8.66273 2.82875 8.79497 1.69779C8.88873 0.896257 9.53073 0.272265 10.3234 0.183673ZM10.4567 9.37623C11.4736 9.26255 12.5263 9.26255 13.5434 9.37623C13.7905 9.40391 13.9854 9.59951 14.0131 9.83719C14.1346 10.8755 14.1346 11.9245 14.0131 12.9629C13.9854 13.2005 13.7905 13.3961 13.5434 13.4238C12.5263 13.5374 11.4736 13.5374 10.4567 13.4238C10.2095 13.3961 10.0147 13.2005 9.98689 12.9629C9.86545 11.9245 9.86545 10.8755 9.98689 9.83719C10.0147 9.59951 10.2095 9.40391 10.4567 9.37623ZM13.6766 8.18367C12.571 8.06015 11.429 8.06015 10.3234 8.18367C9.53073 8.27231 8.88873 8.89623 8.79497 9.69775C8.66273 10.8288 8.66273 11.9713 8.79497 13.1022C8.88873 13.9038 9.53073 14.5278 10.3234 14.6164C11.429 14.7399 12.571 14.7399 13.6766 14.6164C14.4693 14.5278 15.1113 13.9038 15.205 13.1022C15.3373 11.9713 15.3373 10.8288 15.205 9.69775C15.1113 8.89623 14.4693 8.27231 13.6766 8.18367Z" fill="white"/>
</svg>
