<svg width="39" height="39" viewBox="0 0 39 39" fill="none" xmlns="http://www.w3.org/2000/svg">
<rect width="38.4444" height="38.4444" rx="9.77778" fill="#0B91AC"/>
<path d="M18.6913 15.5035C18.0607 15.5035 17.4443 15.6905 16.92 16.0408C16.3956 16.3912 15.987 16.8892 15.7456 17.4718C15.5043 18.0544 15.4412 18.6954 15.5642 19.3139C15.6872 19.9324 15.9909 20.5005 16.4368 20.9465C16.8827 21.3924 17.4508 21.696 18.0693 21.819C18.6878 21.9421 19.3289 21.8789 19.9115 21.6376C20.4941 21.3963 20.9921 20.9876 21.3424 20.4633C21.6928 19.939 21.8798 19.3225 21.8798 18.6919C21.8798 17.8463 21.5438 17.0353 20.9459 16.4374C20.348 15.8394 19.537 15.5035 18.6913 15.5035ZM18.6913 19.7547C18.4811 19.7547 18.2757 19.6924 18.1009 19.5756C17.9261 19.4588 17.7899 19.2928 17.7094 19.0986C17.629 18.9044 17.608 18.6907 17.649 18.4846C17.69 18.2784 17.7912 18.089 17.9398 17.9404C18.0885 17.7918 18.2778 17.6905 18.484 17.6495C18.6902 17.6085 18.9039 17.6296 19.0981 17.71C19.2923 17.7904 19.4583 17.9267 19.575 18.1014C19.6918 18.2762 19.7542 18.4817 19.7542 18.6919C19.7542 18.9738 19.6422 19.2441 19.4429 19.4434C19.2436 19.6427 18.9732 19.7547 18.6913 19.7547ZM28.7986 8.58466C26.2266 6.01268 21.9542 7.00109 18.6913 8.62717C15.4285 7.00109 11.1561 6.01268 8.5841 8.58466C6.39473 10.774 6.55415 14.6533 8.61599 18.6919C6.55415 22.7306 6.39473 26.6098 8.61599 28.7992C11.188 31.3711 15.4711 30.4252 18.7232 28.7992C21.986 30.4678 26.2691 31.403 28.8305 28.7992C31.0199 26.6098 30.8604 22.7306 28.8305 18.6919C30.8285 14.6533 30.988 10.774 28.7986 8.58466ZM27.3 10.0832C28.586 11.3798 28.5435 13.7924 27.4488 16.46C26.5729 15.1773 25.5803 13.9784 24.4836 12.8784C23.3843 11.7842 22.1852 10.795 20.902 9.92379C22.9426 9.12669 25.7484 8.54215 27.3 10.0832ZM22.9426 22.9431C21.6709 24.2353 20.2428 25.3635 18.6913 26.3016C17.1399 25.3635 15.7118 24.2353 14.4401 22.9431C13.149 21.6705 12.0209 20.2425 11.0817 18.6919C12.9663 15.5694 15.5768 12.948 18.6913 11.0504C21.8176 12.944 24.4393 15.5657 26.3329 18.6919C25.3837 20.2443 24.2449 21.6724 22.9426 22.9431ZM10.0827 10.0832C11.6343 8.54215 14.4614 9.12669 16.4595 9.94505C15.1762 10.8163 13.9771 11.8054 12.8778 12.8996C11.7812 13.9996 10.7886 15.1986 9.91261 16.4813C8.83918 13.7924 8.79666 11.3798 10.0827 10.0832ZM10.0827 27.3006C8.79666 26.004 8.83918 23.5914 9.93386 20.9238C10.8098 22.2065 11.8024 23.4054 12.8991 24.5054C13.9984 25.5996 15.1975 26.5888 16.4807 27.46C14.4401 28.2571 11.6343 28.8417 10.0827 27.3006ZM27.3 27.3006C25.7484 28.8417 22.9426 28.2571 20.9232 27.4388C22.2065 26.5675 23.4056 25.5784 24.5049 24.4842C25.6015 23.3842 26.5941 22.1852 27.4701 20.9025C28.5435 23.5914 28.586 26.004 27.3 27.3006Z" fill="white"/>
</svg>
