<svg width="17" height="16" viewBox="0 0 17 16" fill="none" xmlns="http://www.w3.org/2000/svg">
<path fill-rule="evenodd" clip-rule="evenodd" d="M3.93589 0.399994C4.30571 0.399994 4.60551 0.699799 4.60551 1.06962V2.55854C7.13018 2.33369 9.66993 2.33369 12.1946 2.55854V1.06962C12.1946 0.699799 12.4944 0.399994 12.8642 0.399994C13.234 0.399994 13.5339 0.699799 13.5339 1.06962V2.6914C14.8669 2.87988 15.92 3.93425 16.0982 5.27919L16.1756 5.86216C16.5006 8.31416 16.4725 10.8001 16.0922 13.2442C15.9038 14.4549 14.9202 15.3849 13.7008 15.505L12.6357 15.6101C9.81877 15.8879 6.98134 15.8879 4.16439 15.6101L3.09923 15.505C1.87985 15.3849 0.896251 14.4549 0.707854 13.2442C0.327543 10.8001 0.299472 8.31416 0.624499 5.86216L0.701774 5.27919C0.880055 3.93423 1.9332 2.87985 3.26626 2.69139V1.06962C3.26626 0.699799 3.56607 0.399994 3.93589 0.399994ZM4.33334 3.92918C7.03795 3.66248 9.76217 3.66248 12.4667 3.92918L13.2751 4.00891C14.049 4.08523 14.6685 4.68429 14.7706 5.45516L14.8479 6.03814C14.8749 6.2418 14.8994 6.44573 14.9212 6.64983H1.87885C1.90072 6.44573 1.92514 6.24181 1.95214 6.03815L2.02941 5.45516C2.1316 4.68429 2.75106 4.08523 3.52493 4.00891L4.33334 3.92918ZM1.7724 7.98908C1.68474 9.67484 1.7711 11.3668 2.03118 13.0382C2.12567 13.6455 2.61904 14.112 3.23066 14.1723L4.29582 14.2773C7.02536 14.5465 9.77475 14.5465 12.5042 14.2773L13.5694 14.1723C14.181 14.112 14.6744 13.6455 14.7689 13.0382C15.029 11.3668 15.1153 9.67484 15.0276 7.98908H1.7724Z" fill="#80878D"/>
</svg>
